<mxfile host="app.diagrams.net" modified="2021-10-06T17:22:07.364Z" agent="5.0 (Windows NT 10.0; Win64; x64) AppleWebKit/537.36 (KHTML, like Gecko) Chrome/94.0.4606.71 Safari/537.36" etag="MNif9uQLe7pGNi4NJIFu" version="15.4.3" type="github">
  <diagram id="wsvOGzYLy5VYs7ZQQgK0" name="Page-1">
    <mxGraphModel dx="1038" dy="530" grid="1" gridSize="10" guides="1" tooltips="1" connect="1" arrows="1" fold="1" page="1" pageScale="1" pageWidth="850" pageHeight="1100" math="0" shadow="0">
      <root>
        <mxCell id="0" />
        <mxCell id="1" parent="0" />
        <mxCell id="7v1TWwcg-S9umD4_FSk9-1" value="" style="rounded=0;whiteSpace=wrap;html=1;dashed=1;fillColor=#dae8fc;strokeColor=#6c8ebf;" vertex="1" parent="1">
          <mxGeometry x="80" y="330" width="140" height="220" as="geometry" />
        </mxCell>
        <mxCell id="7v1TWwcg-S9umD4_FSk9-2" value="Loan IQ System" style="text;html=1;strokeColor=none;fillColor=none;align=center;verticalAlign=middle;whiteSpace=wrap;rounded=0;" vertex="1" parent="1">
          <mxGeometry x="110" y="330" width="90" height="30" as="geometry" />
        </mxCell>
        <mxCell id="7v1TWwcg-S9umD4_FSk9-3" value="Loan IQ DB" style="shape=cylinder3;whiteSpace=wrap;html=1;boundedLbl=1;backgroundOutline=1;size=15;fillColor=#ffe6cc;strokeColor=#d79b00;" vertex="1" parent="1">
          <mxGeometry x="125" y="450" width="50" height="70" as="geometry" />
        </mxCell>
        <mxCell id="7v1TWwcg-S9umD4_FSk9-5" style="edgeStyle=orthogonalEdgeStyle;rounded=0;orthogonalLoop=1;jettySize=auto;html=1;exitX=0.5;exitY=1;exitDx=0;exitDy=0;" edge="1" parent="1" source="7v1TWwcg-S9umD4_FSk9-4" target="7v1TWwcg-S9umD4_FSk9-3">
          <mxGeometry relative="1" as="geometry" />
        </mxCell>
        <mxCell id="7v1TWwcg-S9umD4_FSk9-4" value="LoanIQ Process" style="shape=process;whiteSpace=wrap;html=1;backgroundOutline=1;fillColor=#f8cecc;strokeColor=#b85450;" vertex="1" parent="1">
          <mxGeometry x="90" y="370" width="120" height="60" as="geometry" />
        </mxCell>
        <mxCell id="7v1TWwcg-S9umD4_FSk9-6" value="" style="rounded=0;whiteSpace=wrap;html=1;dashed=1;fillColor=#dae8fc;strokeColor=#6c8ebf;" vertex="1" parent="1">
          <mxGeometry x="315" y="290" width="490" height="360" as="geometry" />
        </mxCell>
        <mxCell id="7v1TWwcg-S9umD4_FSk9-7" value="Payout Transform Service" style="text;html=1;strokeColor=none;fillColor=none;align=center;verticalAlign=middle;whiteSpace=wrap;rounded=0;dashed=1;" vertex="1" parent="1">
          <mxGeometry x="420" y="290" width="220" height="30" as="geometry" />
        </mxCell>
        <mxCell id="7v1TWwcg-S9umD4_FSk9-9" style="edgeStyle=orthogonalEdgeStyle;rounded=0;orthogonalLoop=1;jettySize=auto;html=1;startArrow=classic;startFill=1;" edge="1" parent="1" source="7v1TWwcg-S9umD4_FSk9-8" target="7v1TWwcg-S9umD4_FSk9-3">
          <mxGeometry relative="1" as="geometry" />
        </mxCell>
        <mxCell id="7v1TWwcg-S9umD4_FSk9-42" style="edgeStyle=orthogonalEdgeStyle;rounded=0;orthogonalLoop=1;jettySize=auto;html=1;exitX=0.5;exitY=1;exitDx=0;exitDy=0;entryX=0.5;entryY=1;entryDx=0;entryDy=0;startArrow=classic;startFill=1;endArrow=none;endFill=0;" edge="1" parent="1" source="7v1TWwcg-S9umD4_FSk9-8" target="7v1TWwcg-S9umD4_FSk9-37">
          <mxGeometry relative="1" as="geometry" />
        </mxCell>
        <mxCell id="7v1TWwcg-S9umD4_FSk9-8" value="JDBC&lt;br&gt;Connection pool" style="rounded=0;whiteSpace=wrap;html=1;" vertex="1" parent="1">
          <mxGeometry x="340" y="550" width="120" height="60" as="geometry" />
        </mxCell>
        <mxCell id="7v1TWwcg-S9umD4_FSk9-10" value="Secure TCP connection&amp;nbsp;" style="text;html=1;strokeColor=none;fillColor=none;align=center;verticalAlign=middle;whiteSpace=wrap;rounded=0;" vertex="1" parent="1">
          <mxGeometry x="200" y="590" width="60" height="30" as="geometry" />
        </mxCell>
        <mxCell id="7v1TWwcg-S9umD4_FSk9-12" style="edgeStyle=orthogonalEdgeStyle;rounded=0;orthogonalLoop=1;jettySize=auto;html=1;entryX=0.5;entryY=0;entryDx=0;entryDy=0;startArrow=classic;startFill=1;" edge="1" parent="1" source="7v1TWwcg-S9umD4_FSk9-11" target="7v1TWwcg-S9umD4_FSk9-8">
          <mxGeometry relative="1" as="geometry" />
        </mxCell>
        <mxCell id="7v1TWwcg-S9umD4_FSk9-11" value="IMT/MT/DDA &lt;br&gt;PollingJDBCSource&amp;nbsp;" style="rounded=0;whiteSpace=wrap;html=1;" vertex="1" parent="1">
          <mxGeometry x="340" y="440" width="120" height="60" as="geometry" />
        </mxCell>
        <mxCell id="7v1TWwcg-S9umD4_FSk9-15" style="edgeStyle=orthogonalEdgeStyle;rounded=0;orthogonalLoop=1;jettySize=auto;html=1;entryX=0.163;entryY=0.571;entryDx=0;entryDy=0;entryPerimeter=0;startArrow=classic;startFill=1;endArrow=none;endFill=0;" edge="1" parent="1" source="7v1TWwcg-S9umD4_FSk9-14" target="7v1TWwcg-S9umD4_FSk9-6">
          <mxGeometry relative="1" as="geometry" />
        </mxCell>
        <mxCell id="7v1TWwcg-S9umD4_FSk9-14" value="Records List&amp;nbsp;&lt;br&gt;GProcess" style="shape=process;whiteSpace=wrap;html=1;backgroundOutline=1;" vertex="1" parent="1">
          <mxGeometry x="335" y="340" width="120" height="60" as="geometry" />
        </mxCell>
        <mxCell id="7v1TWwcg-S9umD4_FSk9-18" style="edgeStyle=orthogonalEdgeStyle;rounded=0;orthogonalLoop=1;jettySize=auto;html=1;exitX=0;exitY=0.5;exitDx=0;exitDy=0;entryX=1;entryY=0.5;entryDx=0;entryDy=0;startArrow=classic;startFill=1;endArrow=none;endFill=0;" edge="1" parent="1" source="7v1TWwcg-S9umD4_FSk9-16" target="7v1TWwcg-S9umD4_FSk9-11">
          <mxGeometry relative="1" as="geometry" />
        </mxCell>
        <mxCell id="7v1TWwcg-S9umD4_FSk9-16" value="Records Status Update&amp;nbsp;&lt;br&gt;GProcess" style="shape=process;whiteSpace=wrap;html=1;backgroundOutline=1;" vertex="1" parent="1">
          <mxGeometry x="500" y="440" width="120" height="60" as="geometry" />
        </mxCell>
        <mxCell id="7v1TWwcg-S9umD4_FSk9-23" style="edgeStyle=orthogonalEdgeStyle;rounded=0;orthogonalLoop=1;jettySize=auto;html=1;entryX=0.5;entryY=1;entryDx=0;entryDy=0;startArrow=classic;startFill=1;endArrow=none;endFill=0;" edge="1" parent="1" source="7v1TWwcg-S9umD4_FSk9-19" target="7v1TWwcg-S9umD4_FSk9-16">
          <mxGeometry relative="1" as="geometry" />
        </mxCell>
        <mxCell id="7v1TWwcg-S9umD4_FSk9-24" style="edgeStyle=orthogonalEdgeStyle;rounded=0;orthogonalLoop=1;jettySize=auto;html=1;entryX=1;entryY=0.5;entryDx=0;entryDy=0;startArrow=classic;startFill=1;endArrow=none;endFill=0;" edge="1" parent="1" source="7v1TWwcg-S9umD4_FSk9-19" target="7v1TWwcg-S9umD4_FSk9-8">
          <mxGeometry relative="1" as="geometry" />
        </mxCell>
        <mxCell id="7v1TWwcg-S9umD4_FSk9-19" value="JDBC Destination" style="rounded=0;whiteSpace=wrap;html=1;" vertex="1" parent="1">
          <mxGeometry x="500" y="550" width="120" height="60" as="geometry" />
        </mxCell>
        <mxCell id="7v1TWwcg-S9umD4_FSk9-27" style="edgeStyle=orthogonalEdgeStyle;rounded=0;orthogonalLoop=1;jettySize=auto;html=1;exitX=0;exitY=0.5;exitDx=0;exitDy=0;entryX=1;entryY=0.5;entryDx=0;entryDy=0;startArrow=classic;startFill=1;endArrow=none;endFill=0;" edge="1" parent="1" source="7v1TWwcg-S9umD4_FSk9-25" target="7v1TWwcg-S9umD4_FSk9-14">
          <mxGeometry relative="1" as="geometry" />
        </mxCell>
        <mxCell id="7v1TWwcg-S9umD4_FSk9-25" value="Convert to JSON/ISO20022" style="shape=process;whiteSpace=wrap;html=1;backgroundOutline=1;" vertex="1" parent="1">
          <mxGeometry x="499" y="340" width="120" height="60" as="geometry" />
        </mxCell>
        <mxCell id="7v1TWwcg-S9umD4_FSk9-34" style="edgeStyle=orthogonalEdgeStyle;rounded=0;orthogonalLoop=1;jettySize=auto;html=1;entryX=1;entryY=0.5;entryDx=0;entryDy=0;startArrow=classic;startFill=1;endArrow=none;endFill=0;" edge="1" parent="1" source="7v1TWwcg-S9umD4_FSk9-28" target="7v1TWwcg-S9umD4_FSk9-25">
          <mxGeometry relative="1" as="geometry" />
        </mxCell>
        <mxCell id="7v1TWwcg-S9umD4_FSk9-28" value="Rest Destination end Points &lt;br&gt;for&lt;br&gt;&amp;nbsp;IMT/MT/DDA" style="rounded=0;whiteSpace=wrap;html=1;" vertex="1" parent="1">
          <mxGeometry x="660" y="340" width="130" height="150" as="geometry" />
        </mxCell>
        <mxCell id="7v1TWwcg-S9umD4_FSk9-36" style="edgeStyle=orthogonalEdgeStyle;rounded=0;orthogonalLoop=1;jettySize=auto;html=1;exitX=0;exitY=0.5;exitDx=0;exitDy=0;entryX=1;entryY=0.5;entryDx=0;entryDy=0;startArrow=classic;startFill=1;endArrow=none;endFill=0;" edge="1" parent="1" source="7v1TWwcg-S9umD4_FSk9-29" target="7v1TWwcg-S9umD4_FSk9-28">
          <mxGeometry relative="1" as="geometry" />
        </mxCell>
        <mxCell id="7v1TWwcg-S9umD4_FSk9-29" value="" style="rounded=0;whiteSpace=wrap;html=1;dashed=1;fillColor=#dae8fc;strokeColor=#6c8ebf;" vertex="1" parent="1">
          <mxGeometry x="840" y="350" width="140" height="130" as="geometry" />
        </mxCell>
        <mxCell id="7v1TWwcg-S9umD4_FSk9-30" value="Bank System" style="text;html=1;strokeColor=none;fillColor=none;align=center;verticalAlign=middle;whiteSpace=wrap;rounded=0;" vertex="1" parent="1">
          <mxGeometry x="870" y="350" width="90" height="30" as="geometry" />
        </mxCell>
        <mxCell id="7v1TWwcg-S9umD4_FSk9-33" value="Bank Payment Process&amp;nbsp;" style="shape=process;whiteSpace=wrap;html=1;backgroundOutline=1;fillColor=#f8cecc;strokeColor=#b85450;" vertex="1" parent="1">
          <mxGeometry x="850" y="390" width="120" height="60" as="geometry" />
        </mxCell>
        <mxCell id="7v1TWwcg-S9umD4_FSk9-40" style="edgeStyle=orthogonalEdgeStyle;rounded=0;orthogonalLoop=1;jettySize=auto;html=1;exitX=0.5;exitY=0;exitDx=0;exitDy=0;entryX=0.5;entryY=1;entryDx=0;entryDy=0;startArrow=classic;startFill=1;endArrow=none;endFill=0;" edge="1" parent="1" source="7v1TWwcg-S9umD4_FSk9-37" target="7v1TWwcg-S9umD4_FSk9-28">
          <mxGeometry relative="1" as="geometry" />
        </mxCell>
        <mxCell id="7v1TWwcg-S9umD4_FSk9-37" value="JDBC Destination" style="rounded=0;whiteSpace=wrap;html=1;" vertex="1" parent="1">
          <mxGeometry x="660" y="550" width="130" height="60" as="geometry" />
        </mxCell>
      </root>
    </mxGraphModel>
  </diagram>
</mxfile>
